<?xml version="1.0" encoding="UTF-8"?>
<svg xmlns="http://www.w3.org/2000/svg" width="1180" height="720" viewBox="0 0 1180 720">
  <defs>
    <marker id="arrow" markerWidth="8" markerHeight="8" refX="7" refY="4" orient="auto">
      <path d="M0,0 L8,4 L0,8 z" fill="#1a1a1a"/>
    </marker>
    <style>
      text { font-family: Arial, Helvetica, sans-serif; fill: #1a1a1a; }
      .title { font-size: 15px; font-weight: 600; }
      .label { font-size: 11px; }
      .flow { font-size: 9.5px; fill: #333; }
      .boundary { font-size: 12px; font-weight: 600; fill: #4a6fa5; }
    </style>
  </defs>
  <rect width="100%" height="100%" fill="#fafafa"/>
  <text x="590" y="28" text-anchor="middle" class="title">DFD уровня 1 — веб-модуль отчётности ECO (нотация Гейна–Сарсона)</text>

  <rect x="175" y="95" width="720" height="520" fill="none" stroke="#4a6fa5"
        stroke-width="1.5" stroke-dasharray="8 5" rx="4"/>
  <text x="187" y="115" class="boundary">ECO — веб-модуль отчётности</text>

  <rect x="30" y="300" width="118" height="62" fill="#ffffff" stroke="#1a1a1a" stroke-width="1.5"/>
  <text x="89.0" y="324.125" text-anchor="middle" font-size="11" font-weight="normal">1</text>
    <text x="89.0" y="337.875" text-anchor="middle" font-size="11" font-weight="normal">Пользователь</text>

  <rect x="470" y="38" width="138" height="58" fill="#ffffff" stroke="#1a1a1a" stroke-width="1.5"/>
  <text x="539.0" y="60.125" text-anchor="middle" font-size="11" font-weight="normal">2</text>
    <text x="539.0" y="73.875" text-anchor="middle" font-size="11" font-weight="normal">API-платформа</text>

  <circle cx="280" cy="340" r="48" fill="#ffffff" stroke="#1a1a1a" stroke-width="1.5"/>
  <text x="280" y="327.5" text-anchor="middle" font-size="10" font-weight="normal">1.0</text>
    <text x="280" y="340.0" text-anchor="middle" font-size="10" font-weight="normal">Аутентифицировать</text>
    <text x="280" y="352.5" text-anchor="middle" font-size="10" font-weight="normal">пользователя</text>

  <circle cx="480" cy="300" r="48" fill="#ffffff" stroke="#1a1a1a" stroke-width="1.5"/>
  <text x="480" y="287.5" text-anchor="middle" font-size="10" font-weight="normal">2.0</text>
    <text x="480" y="300.0" text-anchor="middle" font-size="10" font-weight="normal">Сформировать</text>
    <text x="480" y="312.5" text-anchor="middle" font-size="10" font-weight="normal">дашборд и журнал</text>

  <circle cx="680" cy="300" r="48" fill="#ffffff" stroke="#1a1a1a" stroke-width="1.5"/>
  <text x="680" y="287.5" text-anchor="middle" font-size="10" font-weight="normal">3.0</text>
    <text x="680" y="300.0" text-anchor="middle" font-size="10" font-weight="normal">Сформировать</text>
    <text x="680" y="312.5" text-anchor="middle" font-size="10" font-weight="normal">файл экспорта</text>

  <circle cx="480" cy="480" r="48" fill="#ffffff" stroke="#1a1a1a" stroke-width="1.5"/>
  <text x="480" y="467.5" text-anchor="middle" font-size="10" font-weight="normal">4.0</text>
    <text x="480" y="480.0" text-anchor="middle" font-size="10" font-weight="normal">Проверить</text>
    <text x="480" y="492.5" text-anchor="middle" font-size="10" font-weight="normal">согласованность</text>

  <circle cx="680" cy="480" r="48" fill="#ffffff" stroke="#1a1a1a" stroke-width="1.5"/>
  <text x="680" y="467.5" text-anchor="middle" font-size="10" font-weight="normal">5.0</text>
    <text x="680" y="480.0" text-anchor="middle" font-size="10" font-weight="normal">Зарегистрировать</text>
    <text x="680" y="492.5" text-anchor="middle" font-size="10" font-weight="normal">измерение</text>

  <line x1="355" y1="195" x2="355" y2="243" stroke="#1a1a1a" stroke-width="1.5"/>
  <line x1="355" y1="195" x2="441" y2="195" stroke="#1a1a1a" stroke-width="1.5"/>
  <line x1="355" y1="243" x2="441" y2="243" stroke="#1a1a1a" stroke-width="1.5"/>
  <text x="405.0" y="212.75" text-anchor="middle" font-size="10" font-weight="normal">D1</text>
    <text x="405.0" y="225.25" text-anchor="middle" font-size="10" font-weight="normal">Сессия</text>
<path d="M148,331 L232,340" fill="none" stroke="#1a1a1a" stroke-width="1.1" marker-end="url(#arrow)"/>
<text x="190.0" y="325.5" text-anchor="middle" class="flow">email, пароль</text><path d="M148,318 L220,260 L432,290" fill="none" stroke="#1a1a1a" stroke-width="1.1" marker-end="url(#arrow)"/>
<text x="220" y="252" text-anchor="middle" class="flow">период, фильтры</text><path d="M148,345 L200,200 L632,295" fill="none" stroke="#1a1a1a" stroke-width="1.1" marker-end="url(#arrow)"/>
<text x="185" y="194" text-anchor="middle" class="flow">формат, фильтры</text><path d="M148,358 L210,420 L432,480" fill="none" stroke="#1a1a1a" stroke-width="1.1" marker-end="url(#arrow)"/>
<text x="190" y="420" text-anchor="middle" class="flow">критерии контроля</text><path d="M148,370 L200,540 L632,480" fill="none" stroke="#1a1a1a" stroke-width="1.1" marker-end="url(#arrow)"/>
<text x="175" y="544" text-anchor="middle" class="flow">параметры измерения</text><path d="M242,355 L148,356" fill="none" stroke="#1a1a1a" stroke-width="1.1" marker-end="url(#arrow)"/>
<text x="195.0" y="367.5" text-anchor="middle" class="flow">уведомление о входе</text><path d="M432,320 L200,380 L148,340" fill="none" stroke="#1a1a1a" stroke-width="1.1" marker-end="url(#arrow)"/>
<text x="200" y="388" text-anchor="middle" class="flow">журнал, графики</text><path d="M632,325 L180,450 L148,352" fill="none" stroke="#1a1a1a" stroke-width="1.1" marker-end="url(#arrow)"/>
<text x="180" y="456" text-anchor="middle" class="flow">pdf / xml</text><path d="M432,480 L170,500 L148,365" fill="none" stroke="#1a1a1a" stroke-width="1.1" marker-end="url(#arrow)"/>
<text x="170" y="504" text-anchor="middle" class="flow">панель проблем</text><path d="M632,480 L170,560 L148,378" fill="none" stroke="#1a1a1a" stroke-width="1.1" marker-end="url(#arrow)"/>
<text x="170" y="564" text-anchor="middle" class="flow">подтверждение</text><path d="M280,292 L539,154" fill="none" stroke="#1a1a1a" stroke-width="1.1" marker-end="url(#arrow)"/>
<text x="429.5" y="217.0" text-anchor="middle" class="flow">запрос аутентификации</text><path d="M539,154 L295,292" fill="none" stroke="#1a1a1a" stroke-width="1.1" marker-end="url(#arrow)"/>
<text x="442.0" y="231.0" text-anchor="middle" class="flow">токен, профиль</text><path d="M480,252 L569,154" fill="none" stroke="#1a1a1a" stroke-width="1.1" marker-end="url(#arrow)"/>
<text x="524.5" y="195.0" text-anchor="middle" class="flow">запрос KPI</text><path d="M579,154 L490,252" fill="none" stroke="#1a1a1a" stroke-width="1.1" marker-end="url(#arrow)"/>
<text x="544.5" y="209.0" text-anchor="middle" class="flow">операции, KPI</text><path d="M680,252 L599,154" fill="none" stroke="#1a1a1a" stroke-width="1.1" marker-end="url(#arrow)"/>
<text x="654.5" y="195.0" text-anchor="middle" class="flow">запрос для отчёта</text><path d="M609,154 L680,252" fill="none" stroke="#1a1a1a" stroke-width="1.1" marker-end="url(#arrow)"/>
<text x="664.5" y="209.0" text-anchor="middle" class="flow">данные экспорта</text><path d="M480,432 L519,154" fill="none" stroke="#1a1a1a" stroke-width="1.1" marker-end="url(#arrow)"/>
<text x="484.5" y="285.0" text-anchor="middle" class="flow">запрос проверки</text><path d="M529,154 L480,432" fill="none" stroke="#1a1a1a" stroke-width="1.1" marker-end="url(#arrow)"/>
<text x="499.5" y="299.0" text-anchor="middle" class="flow">наборы severity</text><path d="M680,432 L629,154" fill="none" stroke="#1a1a1a" stroke-width="1.1" marker-end="url(#arrow)"/>
<text x="684.5" y="285.0" text-anchor="middle" class="flow">справочники, запись</text><path d="M639,154 L685,432" fill="none" stroke="#1a1a1a" stroke-width="1.1" marker-end="url(#arrow)"/>
<text x="697.0" y="299.0" text-anchor="middle" class="flow">статус записи</text><path d="M300,305 L405,267" fill="none" stroke="#1a1a1a" stroke-width="1.1" marker-end="url(#arrow)"/>
<text x="364.5" y="280.0" text-anchor="middle" class="flow">данные сессии</text><path d="M455,219 L455,265" fill="none" stroke="#1a1a1a" stroke-width="1.1" marker-end="url(#arrow)"/>
<text x="455.0" y="234.0" text-anchor="middle" class="flow">токен, роль</text><path d="M475,229 L640,260" fill="none" stroke="#1a1a1a" stroke-width="1.1" marker-end="url(#arrow)"/>
<text x="572.5" y="238.5" text-anchor="middle" class="flow">токен, роль</text><path d="M435,267 L450,435" fill="none" stroke="#1a1a1a" stroke-width="1.1" marker-end="url(#arrow)"/>
<text x="432.5" y="355.0" text-anchor="middle" class="flow">токен, роль</text><path d="M485,267 L645,435" fill="none" stroke="#1a1a1a" stroke-width="1.1" marker-end="url(#arrow)"/>
<text x="585.0" y="355.0" text-anchor="middle" class="flow">токен, роль</text></svg>
